<svg width="202" height="50" viewBox="0 0 202 50" xmlns="http://www.w3.org/2000/svg">
    <g fill="#1A1919" fill-rule="evenodd">
        <path d="M23.774 24.903c-.192-.107-.404-.23-.645-.368.85.491.971.56.645.368zM36.393 8.167c-.008-1.872-.128-2.039-1.85-3.047L26.851.638c-1.454-.822-1.761-.846-3.107-.093-1.69.982-6.74 3.912-7.641 4.437-1.787 1.04-2.045 1.207-2.082 2.731l.003 9.6c.014 1.547.113 1.92 1.119 2.568 0 0 7.423 4.314 8.63 5.023 1.308.73 1.627.707 3.03-.082l8.056-4.693c1.362-.808 1.503-1.087 1.523-2.744 0-1.45.01-9.218.01-9.218zM37.49 49.47c-.192-.107-.403-.23-.644-.368.85.492.97.56.644.367zm12.619-16.736c-.008-1.872-.128-2.039-1.85-3.047l-7.692-4.483c-1.445-.814-1.755-.847-3.08-.108-1.662.966-6.763 3.924-7.668 4.452-1.787 1.042-2.045 1.208-2.082 2.733l.002 9.6c.014 1.546.114 1.92 1.119 2.567 0 0 7.42 4.312 8.63 5.023 1.309.73 1.627.707 3.03-.082l8.056-4.692c1.361-.807 1.503-1.087 1.524-2.739-.001-1.432.01-9.224.01-9.224zm-13.264-7.27c.24-.14.452-.261.643-.368.768-.447.804-.47-.643.367zM9.753 49.47c-.192-.107-.404-.23-.644-.368.85.492.971.56.644.367zm-.644-24.007c.24-.138.452-.26.643-.367.767-.447.804-.47-.643.367zm13.263 7.271c-.008-1.872-.128-2.039-1.85-3.047l-7.692-4.483c-1.445-.814-1.755-.847-3.08-.108-1.662.966-6.763 3.924-7.668 4.452C.295 30.59.037 30.756 0 32.28l.002 9.6c.014 1.546.114 1.92 1.119 2.567 0 0 7.42 4.312 8.63 5.023 1.309.73 1.627.707 3.031-.082l8.056-4.692c1.361-.807 1.503-1.087 1.523-2.739 0-1.432.01-9.224.01-9.224z"/>
        <path d="M79.25 33.606V27.22l5.78-11.224h-3.966l-3.665 7.934-3.64-7.934h-3.98l5.782 11.224v6.386h3.689zm13.957-6.132v-2.818h-6.81v2.818h6.81zm8.31 6.374c1 0 1.913-.204 2.739-.61a4.788 4.788 0 0 0 1.953-1.718c.476-.738.718-1.55.726-2.438h-3.278c-.016.59-.225 1.06-.629 1.416-.403.354-.927.532-1.572.532-.839 0-1.464-.295-1.875-.883-.411-.589-.617-1.556-.617-2.903v-.363c0-1.33.208-2.292.623-2.884.416-.593 1.03-.89 1.845-.89.661 0 1.193.212 1.596.636.404.423.613.973.63 1.65h3.277c-.016-1.548-.518-2.787-1.506-3.719-.988-.931-2.3-1.397-3.937-1.397-1.87 0-3.342.601-4.414 1.802-1.073 1.202-1.609 2.81-1.609 4.826v.23c0 2.097.54 3.74 1.62 4.929 1.081 1.19 2.557 1.784 4.427 1.784zm13.074 0c1.887 0 3.39-.607 4.512-1.82 1.12-1.214 1.68-2.825 1.68-4.832l-.023-.895c-.13-1.855-.752-3.322-1.869-4.403-1.117-1.08-2.558-1.62-4.324-1.62-1.242 0-2.332.277-3.272.834-.94.556-1.659 1.342-2.159 2.358-.5 1.016-.75 2.173-.75 3.472v.157c0 2.08.563 3.725 1.688 4.935 1.125 1.21 2.63 1.814 4.517 1.814zm0-2.818c-.87 0-1.54-.329-2.008-.986-.467-.657-.701-1.607-.701-2.848 0-1.395.234-2.425.701-3.09.468-.666 1.13-.998 1.984-.998.863 0 1.532.334 2.008 1.003.476.67.713 1.613.713 2.83 0 1.428-.237 2.466-.713 3.115-.476.65-1.137.974-1.984.974zm12.035 2.576V15.028h-3.508v18.578h3.508zm6.567 0V15.028h-3.507v18.578h3.507zm8.902.242c1.089 0 2.08-.208 2.976-.623.895-.415 1.604-.994 2.128-1.736l-1.717-1.923c-.758.976-1.81 1.464-3.157 1.464-.87 0-1.59-.258-2.159-.774-.568-.516-.909-1.202-1.022-2.056h8.334v-1.428c0-2.072-.514-3.673-1.543-4.801-1.028-1.13-2.437-1.694-4.227-1.694-1.193 0-2.255.28-3.187.84-.931.561-1.65 1.36-2.159 2.396-.508 1.036-.762 2.211-.762 3.525v.34c0 1.958.603 3.527 1.808 4.704 1.206 1.177 2.768 1.766 4.687 1.766zm1.948-8.031h-4.863c.121-.871.398-1.54.829-2.008.431-.468.994-.701 1.687-.701.742 0 1.314.211 1.718.635.403.423.612 1.022.629 1.796v.278zm10.921 8.03c1 0 1.913-.203 2.74-.61a4.789 4.789 0 0 0 1.953-1.717c.476-.738.718-1.55.726-2.438h-3.278c-.016.59-.226 1.06-.629 1.416-.403.354-.927.532-1.572.532-.839 0-1.464-.295-1.875-.883-.411-.589-.617-1.556-.617-2.903v-.363c0-1.33.208-2.292.623-2.884.416-.593 1.03-.89 1.845-.89.66 0 1.193.212 1.596.636.403.423.613.973.63 1.65h3.277c-.016-1.548-.518-2.787-1.506-3.719-.988-.931-2.3-1.397-3.937-1.397-1.87 0-3.342.601-4.414 1.802-1.073 1.202-1.61 2.81-1.61 4.826v.23c0 2.097.541 3.74 1.622 4.929 1.08 1.19 2.556 1.784 4.426 1.784zm11.854 0c.725 0 1.43-.104 2.116-.314v-2.648a5.574 5.574 0 0 1-1.028.084c-.524 0-.879-.105-1.064-.314-.186-.21-.278-.557-.278-1.04v-6.532h2.237V20.52h-2.237v-3.217h-3.496v3.217h-1.91v2.564h1.91v7.052c.048 2.475 1.298 3.713 3.75 3.713zm5.866-14.9c.588 0 1.062-.17 1.42-.508.36-.339.539-.774.539-1.306 0-.525-.177-.956-.532-1.295-.355-.338-.83-.508-1.427-.508-.605 0-1.083.17-1.434.508-.35.34-.526.77-.526 1.295 0 .532.18.967.538 1.306.36.339.833.508 1.422.508zm1.753 14.659V20.519h-3.507v13.087h3.507zm9.447 0 4.414-13.087h-3.652l-2.431 8.817-2.432-8.817h-3.652l4.414 13.087h3.339zm11.974.242c1.088 0 2.08-.208 2.975-.623.895-.415 1.605-.994 2.129-1.736l-1.718-1.923c-.758.976-1.81 1.464-3.156 1.464-.871 0-1.591-.258-2.16-.774-.568-.516-.909-1.202-1.021-2.056h8.333v-1.428c0-2.072-.514-3.673-1.542-4.801-1.028-1.13-2.437-1.694-4.227-1.694-1.194 0-2.256.28-3.187.84-.932.561-1.651 1.36-2.16 2.396-.507 1.036-.761 2.211-.761 3.525v.34c0 1.958.602 3.527 1.808 4.704 1.205 1.177 2.768 1.766 4.687 1.766zm1.947-8.031h-4.862c.12-.871.397-1.54.828-2.008.432-.468.994-.701 1.688-.701.741 0 1.314.211 1.717.635.403.423.613 1.022.629 1.796v.278z" fill-rule="nonzero"/>
    </g>
</svg>
