<svg width="632" height="68" viewBox="0 0 632 68" xmlns="http://www.w3.org/2000/svg">
    <g fill="#1A1919" fill-rule="evenodd">
        <path d="m19.501 9.581 1.89 2.376-.075.025A27.331 27.331 0 0 0 4.35 28.957l7.989 7.988 17.836-21.63L48.081 36.75l7.898-7.897a27.332 27.332 0 0 0-16.393-16.68l-.188-.067 1.88-2.363c11.392 4.501 19.085 15.556 19.085 28.075C60.363 54.488 46.85 68 30.182 68 13.512 68 0 54.487 0 37.818 0 25.132 7.898 13.967 19.501 9.581zm10.687 10.234L5.572 49.668c4.412 9.146 13.774 15.458 24.61 15.458 10.936 0 20.371-6.43 24.731-15.715L30.188 19.815zm-.225 5.23 4.237 4.86-.001 5.487 5.013 5.557 2.55-2.905L46 42.904V50.6h-6.671l-5.13 5.904L34.2 63h-8.5l-.001-6.615L20.75 50.6l-6.25.001v-7.702l4.263-4.854 2.347 2.692 4.589-5.3.001-5.538 4.263-4.854zM29.955 55 28.7 56.429V60h2.5v-3.571L29.955 55zm-2.4-17.125-4.551 5.257L23 48.616l4.227 4.942 2.598-2.959-4.125.001v-7.702l4.263-4.854 4.237 4.86V50.6h-4.102l2.633 3.02 4.508-5.19.116-5.06-4.848-5.375-4.952-.12zm14.2 4.725L40.5 44.029V47.6H43v-3.571L41.755 42.6zm-11.8 0L28.7 44.029V47.6h2.5v-3.571L29.955 42.6zm-11.2 0L17.5 44.029V47.6H20v-3.571L18.755 42.6zm-15.88-4.782c0 3.092.513 6.063 1.46 8.834l6.167-7.479-7.034-7.033a27.352 27.352 0 0 0-.594 5.678zm53.995-5.791-6.939 6.938 6.19 7.409a27.282 27.282 0 0 0 1.368-8.556c0-1.979-.213-3.918-.619-5.791zM29.955 29.6 28.7 31.029V34.6h2.5v-3.571L29.955 29.6zM15.854 18.063l1.153 2.615 2.841-.309-1.688 2.307 1.688 2.306-2.841-.309-1.153 2.616-1.154-2.616-2.841.31 1.688-2.307-1.688-2.307 2.841.31 1.154-2.616zm27.827.55a4.062 4.062 0 1 1-2.75 7.054 3.167 3.167 0 1 0 .218-6.17 4.052 4.052 0 0 1 2.532-.883zM30.297 0l3.072 4.99 8.166-.414-7.747 9.69c-1.033-.375-5.61-.375-6.642-.001l-7.983-9.689 8.06.412L30.298 0zm-.001 5.48-1.518 2.466-3.252-.167 2.811 3.412.314-.023a28.658 28.658 0 0 1 3.632 0l.283.02L35.3 7.77l-3.486.176-1.518-2.465z"/>
        <path d="M93.81 51c.8 0 1.2-.347 1.2-1.04v-9.52c0-.267.147-.4.44-.4h5.72c2.187 0 4.094-.367 5.72-1.1 1.627-.733 2.9-1.793 3.82-3.18.92-1.387 1.38-3.053 1.38-5 0-2.133-.533-3.9-1.6-5.3-1.066-1.4-2.493-2.44-4.28-3.12-1.786-.68-3.773-1.02-5.96-1.02H87.61c-.453 0-.68.28-.68.84v27.92c0 .32.067.553.2.7.134.147.374.22.72.22h5.96zm6.2-16.72h-4.4c-.4 0-.6-.267-.6-.8v-5.64c0-.533.28-.8.84-.8h3.92c.774 0 1.467.14 2.08.42.614.28 1.1.687 1.46 1.22.36.533.54 1.187.54 1.96 0 1.093-.346 1.973-1.04 2.64-.693.667-1.626 1-2.8 1zm20.281-14.92c.147.08.38.08.7 0l9.28-2.32c.667-.187.907-.587.72-1.2l-1-2.84c-.16-.427-.413-.573-.76-.44l-9.56 3.88c-.346.16-.44.453-.28.88l.56 1.56c.08.24.194.4.34.48zM135.911 51c.294 0 .507-.08.64-.24.134-.16.2-.347.2-.56v-4.4c0-.453-.266-.68-.8-.68h-13.32c-.293 0-.44-.173-.44-.52v-5.08c0-.373.2-.56.6-.56h7.96c.24 0 .407-.06.5-.18.094-.12.14-.26.14-.42v-4.44c0-.48-.253-.72-.76-.72h-7.8c-.426 0-.64-.253-.64-.76v-4.52c0-.48.28-.72.84-.72h12.36c.64 0 .96-.32.96-.96v-4.16c0-.507-.213-.76-.64-.76h-20.92c-.453 0-.68.28-.68.84v27.92c0 .613.32.92.96.92h20.84zm14.621.4c1.707 0 3.227-.227 4.56-.68 1.334-.453 2.494-1.04 3.48-1.76.987-.72 1.8-1.493 2.44-2.32.64-.827 1.14-1.613 1.5-2.36.36-.747.594-1.36.7-1.84.08-.48.047-.793-.1-.94-.146-.147-.273-.233-.38-.26l-4.52-.88c-.533-.107-.866-.013-1 .28-.693 1.787-1.58 3.047-2.66 3.78-1.08.733-2.34 1.1-3.78 1.1-1.866 0-3.273-.733-4.22-2.2-.946-1.467-1.42-3.92-1.42-7.36 0-3.413.507-5.847 1.52-7.3 1.014-1.453 2.387-2.18 4.12-2.18 1.44 0 2.52.413 3.24 1.24.72.827 1.2 1.88 1.44 3.16.054.24.114.42.18.54.067.12.234.18.5.18l6.24-.44c.267-.027.447-.113.54-.26.094-.147.074-.473-.06-.98a10.043 10.043 0 0 0-1.4-3.56 10.82 10.82 0 0 0-2.66-2.86c-1.08-.813-2.32-1.447-3.72-1.9-1.4-.453-2.9-.68-4.5-.68-2.826 0-5.286.613-7.38 1.84-2.093 1.227-3.7 2.953-4.82 5.18s-1.68 4.86-1.68 7.9.56 5.733 1.68 8.08c1.12 2.347 2.72 4.18 4.8 5.5 2.08 1.32 4.534 1.98 7.36 1.98zm26.101 0c2.56 0 4.76-.387 6.6-1.16 1.84-.773 3.26-1.873 4.26-3.3 1-1.427 1.5-3.1 1.5-5.02 0-2-.573-3.76-1.72-5.28-1.147-1.52-2.973-2.613-5.48-3.28l-6.48-1.76c-.773-.187-1.367-.427-1.78-.72-.413-.293-.7-.593-.86-.9a1.938 1.938 0 0 1-.24-.9c0-.693.36-1.3 1.08-1.82.72-.52 1.867-.78 3.44-.78 1.6 0 2.793.24 3.58.72.787.48 1.447 1.013 1.98 1.6.267.267.473.42.62.46.147.04.3-.007.46-.14l3.92-2.84c.24-.187.327-.373.26-.56a3.508 3.508 0 0 0-.26-.56c-.64-.853-1.513-1.6-2.62-2.24-1.107-.64-2.36-1.133-3.76-1.48a18.33 18.33 0 0 0-4.42-.52c-2.427 0-4.533.413-6.32 1.24s-3.167 1.94-4.14 3.34a7.98 7.98 0 0 0-1.46 4.66c0 1.333.3 2.573.9 3.72.6 1.147 1.46 2.147 2.58 3 1.12.853 2.467 1.493 4.04 1.92l6.08 1.6c.72.187 1.287.413 1.7.68.413.267.72.567.92.9.2.333.3.687.3 1.06 0 .933-.48 1.633-1.44 2.1-.96.467-2.24.7-3.84.7-1.093 0-2.033-.113-2.82-.34a5.933 5.933 0 0 1-2.1-1.08c-.613-.493-1.227-1.14-1.84-1.94a.813.813 0 0 0-.54-.34c-.227-.04-.513.06-.86.3l-3.6 2.48c-.267.213-.413.407-.44.58-.027.173.04.393.2.66.64 1.067 1.593 1.993 2.86 2.78 1.267.787 2.733 1.393 4.4 1.82 1.667.427 3.447.64 5.34.64zm36.082-.4c.72 0 1.173-.307 1.36-.92l9.44-27.72c.08-.267.053-.507-.08-.72-.134-.213-.347-.32-.64-.32h-5.28c-.507 0-.814.253-.92.76l-5.68 18.8c-.134.453-.28.467-.44.04l-5.92-18.84c-.134-.507-.44-.76-.92-.76h-6.8c-.294 0-.507.107-.64.32-.134.213-.147.453-.04.72l9.4 27.72c.16.613.613.92 1.36.92h5.8zm16.4-31.64c.147.08.38.08.7 0l9.28-2.32c.667-.187.907-.587.72-1.2l-1-2.84c-.16-.427-.413-.573-.76-.44l-9.56 3.88c-.346.16-.44.453-.28.88l.56 1.56c.08.24.194.4.34.48zm-3.5 31.64c.267 0 .467-.053.6-.16a.845.845 0 0 0 .28-.4l1.88-5.28c.08-.293.267-.44.56-.44h9.08c.214 0 .354.047.42.14.067.093.127.193.18.3l1.76 5.2c.134.427.414.64.84.64h6.88c.294 0 .48-.147.56-.44.08-.293.08-.56 0-.8l-9.72-27.44c-.24-.667-.693-1-1.36-1h-6.96c-.32 0-.56.067-.72.2-.16.133-.293.347-.4.64l-9.84 27.52c-.133.373-.14.687-.02.94.12.253.314.38.58.38h5.4zm10.6-12.36h-5.56c-.426 0-.546-.253-.36-.76l2.92-8.04c.054-.133.134-.2.24-.2.107 0 .187.067.24.2l2.88 8.04c.134.507.014.76-.36.76zM257.398 51c.8 0 1.2-.36 1.2-1.08v-10.6a.55.55 0 0 1 .1-.28c.066-.107.193-.16.38-.16h2.76c.64 0 1.04.2 1.2.6l4 10.76c.16.507.493.76 1 .76h6.84c.293 0 .513-.12.66-.36.146-.24.153-.52.02-.84l-5.16-11.52c-.134-.373-.08-.613.16-.72a8.167 8.167 0 0 0 2.72-1.66c.8-.733 1.44-1.633 1.92-2.7.48-1.067.72-2.253.72-3.56 0-2.667-1.027-4.72-3.08-6.16-2.054-1.44-4.947-2.16-8.68-2.16h-12.96c-.454 0-.68.28-.68.84v27.92c0 .32.066.553.2.7.133.147.373.22.72.22h5.96zm6.24-17.48h-4.44c-.4 0-.6-.267-.6-.8v-5.36c0-.48.28-.72.84-.72h4.2c1.093 0 2.02.3 2.78.9.76.6 1.14 1.473 1.14 2.62 0 1.04-.334 1.86-1 2.46-.667.6-1.64.9-2.92.9zm27.1 17.88c2.854 0 5.334-.62 7.44-1.86 2.107-1.24 3.734-2.993 4.88-5.26 1.147-2.267 1.72-4.947 1.72-8.04 0-3.12-.58-5.827-1.74-8.12-1.16-2.293-2.786-4.067-4.88-5.32-2.093-1.253-4.566-1.88-7.42-1.88-2.826 0-5.293.627-7.4 1.88-2.106 1.253-3.746 3.027-4.92 5.32-1.173 2.293-1.76 5-1.76 8.12 0 3.093.574 5.78 1.72 8.06 1.147 2.28 2.78 4.033 4.9 5.26 2.12 1.227 4.607 1.84 7.46 1.84zm.04-5.6c-2 0-3.44-.733-4.32-2.2-.88-1.467-1.32-3.88-1.32-7.24 0-3.493.447-6.013 1.34-7.56.894-1.547 2.314-2.32 4.26-2.32 1.947 0 3.36.773 4.24 2.32.88 1.547 1.32 4.067 1.32 7.56 0 3.36-.433 5.773-1.3 7.24-.866 1.467-2.273 2.2-4.22 2.2zm26.861 5.6c2.56 0 4.76-.387 6.6-1.16 1.84-.773 3.26-1.873 4.26-3.3 1-1.427 1.5-3.1 1.5-5.02 0-2-.573-3.76-1.72-5.28-1.146-1.52-2.973-2.613-5.48-3.28l-6.48-1.76c-.773-.187-1.366-.427-1.78-.72-.413-.293-.7-.593-.86-.9a1.938 1.938 0 0 1-.24-.9c0-.693.36-1.3 1.08-1.82.72-.52 1.867-.78 3.44-.78 1.6 0 2.794.24 3.58.72.787.48 1.447 1.013 1.98 1.6.267.267.474.42.62.46.147.04.3-.007.46-.14l3.92-2.84c.24-.187.327-.373.26-.56a3.508 3.508 0 0 0-.26-.56c-.64-.853-1.513-1.6-2.62-2.24-1.106-.64-2.36-1.133-3.76-1.48a18.33 18.33 0 0 0-4.42-.52c-2.426 0-4.533.413-6.32 1.24-1.786.827-3.166 1.94-4.14 3.34a7.98 7.98 0 0 0-1.46 4.66c0 1.333.3 2.573.9 3.72.6 1.147 1.46 2.147 2.58 3 1.12.853 2.467 1.493 4.04 1.92l6.08 1.6c.72.187 1.287.413 1.7.68.414.267.72.567.92.9.2.333.3.687.3 1.06 0 .933-.48 1.633-1.44 2.1-.96.467-2.24.7-3.84.7-1.093 0-2.033-.113-2.82-.34a5.933 5.933 0 0 1-2.1-1.08c-.613-.493-1.226-1.14-1.84-1.94a.813.813 0 0 0-.54-.34c-.226-.04-.513.06-.86.3l-3.6 2.48c-.266.213-.413.407-.44.58-.026.173.04.393.2.66.64 1.067 1.594 1.993 2.86 2.78 1.267.787 2.734 1.393 4.4 1.82 1.667.427 3.447.64 5.34.64zm31.442-.4c3.52 0 6.46-.627 8.82-1.88 2.36-1.253 4.12-3.007 5.28-5.26 1.16-2.253 1.74-4.847 1.74-7.78 0-2.88-.56-5.407-1.68-7.58-1.12-2.173-2.847-3.88-5.18-5.12-2.333-1.24-5.3-1.913-8.9-2.02a40.813 40.813 0 0 0-2.04-.04h-7.76c-.347 0-.593.067-.74.2-.147.133-.22.373-.22.72v27.68c0 .72.347 1.08 1.04 1.08h9.64zm-1.56-5.64H347c-.347 0-.52-.187-.52-.56V27.52c0-.373.133-.56.4-.56H348c1.92 0 3.507.327 4.76.98 1.253.653 2.18 1.647 2.78 2.98.6 1.333.9 3.04.9 5.12 0 2.267-.347 4.087-1.04 5.46-.693 1.373-1.7 2.36-3.02 2.96-1.32.6-2.94.9-4.86.9zM369.94 51c.268 0 .468-.053.6-.16a.845.845 0 0 0 .28-.4l1.88-5.28c.08-.293.268-.44.56-.44h9.08c.214 0 .354.047.42.14.068.093.128.193.18.3l1.76 5.2c.134.427.414.64.84.64h6.88c.294 0 .48-.147.56-.44.08-.293.08-.56 0-.8l-9.72-27.44c-.24-.667-.692-1-1.36-1h-6.96c-.32 0-.56.067-.72.2-.16.133-.292.347-.4.64l-9.84 27.52c-.132.373-.14.687-.02.94.12.253.314.38.58.38h5.4zm10.6-12.36h-5.56c-.426 0-.546-.253-.36-.76l2.92-8.04c.054-.133.134-.2.24-.2.108 0 .188.067.24.2l2.88 8.04c.134.507.014.76-.36.76zm24.702 12.76c2.56 0 4.76-.387 6.6-1.16 1.84-.773 3.26-1.873 4.26-3.3 1-1.427 1.5-3.1 1.5-5.02 0-2-.574-3.76-1.72-5.28-1.147-1.52-2.974-2.613-5.48-3.28l-6.48-1.76c-.774-.187-1.367-.427-1.78-.72-.414-.293-.7-.593-.86-.9a1.938 1.938 0 0 1-.24-.9c0-.693.36-1.3 1.08-1.82.72-.52 1.866-.78 3.44-.78 1.6 0 2.793.24 3.58.72.786.48 1.446 1.013 1.98 1.6.266.267.473.42.62.46.146.04.3-.007.46-.14l3.92-2.84c.24-.187.326-.373.26-.56a3.508 3.508 0 0 0-.26-.56c-.64-.853-1.514-1.6-2.62-2.24-1.107-.64-2.36-1.133-3.76-1.48a18.33 18.33 0 0 0-4.42-.52c-2.427 0-4.534.413-6.32 1.24-1.787.827-3.167 1.94-4.14 3.34a7.98 7.98 0 0 0-1.46 4.66c0 1.333.3 2.573.9 3.72.6 1.147 1.46 2.147 2.58 3 1.12.853 2.466 1.493 4.04 1.92l6.08 1.6c.72.187 1.286.413 1.7.68.413.267.72.567.92.9.2.333.3.687.3 1.06 0 .933-.48 1.633-1.44 2.1-.96.467-2.24.7-3.84.7-1.094 0-2.034-.113-2.82-.34a5.933 5.933 0 0 1-2.1-1.08c-.614-.493-1.227-1.14-1.84-1.94a.813.813 0 0 0-.54-.34c-.227-.04-.514.06-.86.3l-3.6 2.48c-.267.213-.414.407-.44.58-.027.173.04.393.2.66.64 1.067 1.593 1.993 2.86 2.78 1.266.787 2.733 1.393 4.4 1.82 1.666.427 3.446.64 5.34.64zm21.26-.4c.8 0 1.2-.347 1.2-1.04V39.28c0-.347.187-.52.56-.52h8.12c.374 0 .56.173.56.52v10.68c0 .693.4 1.04 1.2 1.04h5.92c.374 0 .627-.073.76-.22.134-.147.2-.38.2-.7V22.16c0-.56-.226-.84-.68-.84h-6.72c-.453 0-.68.253-.68.76v9.76c0 .507-.213.76-.64.76h-7.96c-.426 0-.64-.253-.64-.76v-9.76c0-.507-.226-.76-.68-.76h-6.72c-.453 0-.68.28-.68.84v27.92c0 .32.067.553.2.7.134.147.387.22.76.22h5.92zm34.541 0c4.187 0 7.32-.66 9.4-1.98 2.08-1.32 3.12-3.34 3.12-6.06 0-1.76-.453-3.193-1.36-4.3-.906-1.107-2.44-2.033-4.6-2.78-.053-.027-.08-.073-.08-.14 0-.067.027-.113.08-.14 1.974-.88 3.34-1.82 4.1-2.82.76-1 1.14-2.22 1.14-3.66 0-2.56-1.06-4.5-3.18-5.82-2.12-1.32-5.18-1.98-9.18-1.98h-11.44c-.266 0-.48.087-.64.26-.16.173-.24.407-.24.7V50.2c0 .213.074.4.22.56.147.16.34.24.58.24h12.08zm.04-17.76h-4.24c-.4 0-.6-.28-.6-.84v-4.96c0-.48.28-.72.84-.72h3.68c1.174 0 2.147.293 2.92.88.774.587 1.16 1.4 1.16 2.44 0 .533-.093.993-.28 1.38a2.707 2.707 0 0 1-.8.98 3.936 3.936 0 0 1-1.2.62c-.453.147-.946.22-1.48.22zm-.24 12.36h-4c-.4 0-.6-.267-.6-.8v-5.24c0-.533.28-.8.84-.8h4c.8 0 1.507.133 2.12.4.614.267 1.094.653 1.44 1.16.347.507.52 1.107.52 1.8 0 .96-.36 1.78-1.08 2.46-.72.68-1.8 1.02-3.24 1.02zm27.541 5.8c2.854 0 5.334-.62 7.44-1.86 2.107-1.24 3.734-2.993 4.88-5.26 1.147-2.267 1.72-4.947 1.72-8.04 0-3.12-.58-5.827-1.74-8.12-1.16-2.293-2.786-4.067-4.88-5.32-2.093-1.253-4.566-1.88-7.42-1.88-2.826 0-5.293.627-7.4 1.88-2.106 1.253-3.746 3.027-4.92 5.32-1.173 2.293-1.76 5-1.76 8.12 0 3.093.574 5.78 1.72 8.06 1.147 2.28 2.78 4.033 4.9 5.26 2.12 1.227 4.607 1.84 7.46 1.84zm.04-5.6c-2 0-3.44-.733-4.32-2.2-.88-1.467-1.32-3.88-1.32-7.24 0-3.493.447-6.013 1.34-7.56.894-1.547 2.314-2.32 4.26-2.32 1.947 0 3.36.773 4.24 2.32.88 1.547 1.32 4.067 1.32 7.56 0 3.36-.433 5.773-1.3 7.24-.866 1.467-2.273 2.2-4.22 2.2zm18.981 5.2c.267 0 .467-.053.6-.16a.845.845 0 0 0 .28-.4l1.88-5.28c.08-.293.267-.44.56-.44h9.08c.214 0 .354.047.42.14.067.093.127.193.18.3l1.76 5.2c.134.427.414.64.84.64h6.88c.294 0 .48-.147.56-.44.08-.293.08-.56 0-.8l-9.72-27.44c-.24-.667-.693-1-1.36-1h-6.96c-.32 0-.56.067-.72.2-.16.133-.293.347-.4.64l-9.84 27.52c-.133.373-.14.687-.02.94.12.253.314.38.58.38h5.4zm10.6-12.36h-5.56c-.426 0-.546-.253-.36-.76l2.92-8.04c.054-.133.134-.2.24-.2.107 0 .187.067.24.2l2.88 8.04c.134.507.014.76-.36.76zM539.186 51c.8 0 1.2-.36 1.2-1.08v-10.6a.55.55 0 0 1 .1-.28c.067-.107.193-.16.38-.16h2.76c.64 0 1.04.2 1.2.6l4 10.76c.16.507.493.76 1 .76h6.84c.293 0 .513-.12.66-.36.147-.24.153-.52.02-.84l-5.16-11.52c-.133-.373-.08-.613.16-.72a8.167 8.167 0 0 0 2.72-1.66c.8-.733 1.44-1.633 1.92-2.7.48-1.067.72-2.253.72-3.56 0-2.667-1.027-4.72-3.08-6.16-2.053-1.44-4.947-2.16-8.68-2.16h-12.96c-.453 0-.68.28-.68.84v27.92c0 .32.067.553.2.7.133.147.373.22.72.22h5.96zm6.24-17.48h-4.44c-.4 0-.6-.267-.6-.8v-5.36c0-.48.28-.72.84-.72h4.2c1.093 0 2.02.3 2.78.9.76.6 1.14 1.473 1.14 2.62 0 1.04-.333 1.86-1 2.46-.667.6-1.64.9-2.92.9zM570.487 51c3.52 0 6.46-.627 8.82-1.88 2.36-1.253 4.12-3.007 5.28-5.26 1.16-2.253 1.74-4.847 1.74-7.78 0-2.88-.56-5.407-1.68-7.58-1.12-2.173-2.847-3.88-5.18-5.12-2.333-1.24-5.3-1.913-8.9-2.02a40.813 40.813 0 0 0-2.04-.04h-7.76c-.347 0-.593.067-.74.2-.147.133-.22.373-.22.72v27.68c0 .72.347 1.08 1.04 1.08h9.64zm-1.56-5.64h-.52c-.347 0-.52-.187-.52-.56V27.52c0-.373.133-.56.4-.56h1.12c1.92 0 3.507.327 4.76.98 1.253.653 2.18 1.647 2.78 2.98.6 1.333.9 3.04.9 5.12 0 2.267-.347 4.087-1.04 5.46-.693 1.373-1.7 2.36-3.02 2.96-1.32.6-2.94.9-4.86.9zm23.58 6.04c2.96 0 5.187-.647 6.68-1.94 1.494-1.293 2.24-3.487 2.24-6.58v-20.8c0-.507-.226-.76-.68-.76h-6.68c-.48 0-.72.28-.72.84v18.76c0 1.413-.273 2.407-.82 2.98-.546.573-1.326.86-2.34.86-.506 0-.953-.047-1.34-.14-.386-.093-.74-.167-1.06-.22-.533-.08-.826.187-.88.8l-.36 4.12c-.026.48.047.833.22 1.06.174.227.46.38.86.46.8.16 1.594.293 2.38.4.787.107 1.62.16 2.5.16zm15.542-.4c.266 0 .466-.053.6-.16a.845.845 0 0 0 .28-.4l1.88-5.28c.08-.293.266-.44.56-.44h9.08c.213 0 .353.047.42.14.066.093.126.193.18.3l1.76 5.2c.133.427.413.64.84.64h6.88c.293 0 .48-.147.56-.44.08-.293.08-.56 0-.8l-9.72-27.44c-.24-.667-.694-1-1.36-1h-6.96c-.32 0-.56.067-.72.2-.16.133-.294.347-.4.64l-9.84 27.52c-.134.373-.14.687-.02.94.12.253.313.38.58.38h5.4zm10.6-12.36h-5.56c-.427 0-.547-.253-.36-.76l2.92-8.04c.053-.133.133-.2.24-.2.106 0 .186.067.24.2l2.88 8.04c.133.507.013.76-.36.76z" fill-rule="nonzero"/>
    </g>
</svg>
